<svg width="30" height="30" viewBox="0 0 30 30" fill="none" xmlns="http://www.w3.org/2000/svg">
<path d="M1.94238 29.5C2.27712 29.5 2.59771 29.3696 2.83398 29.1387V29.1377L26.1152 5.60547L26.9707 4.74023V27.9219C26.9707 28.2503 27.1023 28.5668 27.3389 28.8008C27.5756 29.0349 27.8981 29.167 28.2354 29.167C28.5725 29.167 28.8951 29.0349 29.1318 28.8008C29.3683 28.5668 29.5 28.2503 29.5 27.9219V1.74512C29.5 1.4167 29.3684 1.10016 29.1318 0.866211C28.8951 0.63214 28.5725 0.500015 28.2354 0.5H1.76465C1.4275 0.500015 1.1049 0.632139 0.868164 0.866211C0.631597 1.10016 0.500006 1.4167 0.5 1.74512C0.5 2.07354 0.631593 2.39008 0.868164 2.62402C1.10491 2.85811 1.42749 2.99022 1.76465 2.99023H25.1748L24.332 3.8418L1.05078 27.375L1.04785 27.3789L0.963867 27.4697C0.780348 27.6914 0.679688 27.9696 0.679688 28.2568C0.679804 28.5846 0.811101 28.9 1.04688 29.1338C1.28352 29.3675 1.60557 29.4999 1.94238 29.5Z" fill="#5167B1" stroke="#040717"/>
</svg>
