<svg width="57" height="57" viewBox="0 0 57 57" fill="none" xmlns="http://www.w3.org/2000/svg">
<path d="M3.68458 55.8909C4.23169 55.8908 4.75778 55.703 5.17481 55.3655L5.34669 55.2112L49.4873 10.593L51.1983 8.86353L51.1983 52.9504C51.1983 53.5591 51.4423 54.1454 51.8809 54.5793C52.32 55.0136 52.9182 55.2599 53.544 55.26C54.1699 55.26 54.7688 55.0137 55.208 54.5793C55.6466 54.1454 55.8906 53.5591 55.8906 52.9504L55.8906 3.30981C55.8906 2.70094 55.6469 2.11391 55.208 1.67993C54.7688 1.24559 54.1699 1.00024 53.544 1.00024L3.34669 1.00024C2.72093 1.00024 2.12279 1.24579 1.6836 1.67993C1.24476 2.11391 1.00001 2.70094 1.00001 3.30981C1.00012 3.91854 1.24486 4.50484 1.6836 4.93872C2.1228 5.37291 2.7209 5.61841 3.34669 5.61841L47.8643 5.61841L46.1787 7.32251L2.03028 51.9495L2.02247 51.9563L1.8672 52.1262C1.52717 52.5372 1.34086 53.0521 1.34083 53.5842C1.34083 54.192 1.58409 54.7774 2.02149 55.2112C2.46064 55.6449 3.05918 55.8909 3.68458 55.8909Z" fill="white" stroke="#5358A7" stroke-width="2"/>
</svg>
