<svg width="54" height="54" viewBox="0 0 54 54" fill="none" xmlns="http://www.w3.org/2000/svg">
<path d="M3.4707 52.9287C4.0484 52.9287 4.60447 52.7302 5.0459 52.373L5.22852 52.21L46.8164 10.1719L47.9629 9.0127V49.8867C47.963 50.5334 48.2228 51.1547 48.6875 51.6143C49.1525 52.0741 49.7845 52.3339 50.4453 52.334C51.1062 52.334 51.739 52.0742 52.2041 51.6143C52.6686 51.1547 52.9286 50.5332 52.9287 49.8867V3.11816C52.9287 2.47138 52.6689 1.8493 52.2041 1.38965C51.739 0.929737 51.1062 0.669922 50.4453 0.669922H3.15332C2.49246 0.669922 1.85959 0.929781 1.39453 1.38965C0.929717 1.84931 0.669922 2.47136 0.669922 3.11816C0.669937 3.76494 0.929728 4.38703 1.39453 4.84668C1.85959 5.30651 2.49249 5.56641 3.15332 5.56641H44.4424L43.3125 6.70703L1.71875 48.751L1.71387 48.7559L1.5498 48.9355C1.18915 49.3712 0.991232 49.9179 0.991211 50.4834C0.991211 51.1294 1.24911 51.7514 1.71289 52.2109L1.71387 52.21C2.17881 52.6692 2.81042 52.9287 3.4707 52.9287Z" fill="white" stroke="white" stroke-width="1.33996"/>
</svg>
