<svg width="44" height="44" viewBox="0 0 44 44" fill="none" xmlns="http://www.w3.org/2000/svg">
<path d="M2.75 15.8945V31.6245C2.75 33.0832 3.32946 34.4822 4.36091 35.5136C5.39236 36.5451 6.79131 37.1245 8.25 37.1245H35.75C37.2087 37.1245 38.6076 36.5451 39.6391 35.5136C40.6705 34.4822 41.25 33.0832 41.25 31.6245V15.8945L24.882 25.965C24.0153 26.4983 23.0176 26.7806 22 26.7806C20.9824 26.7806 19.9847 26.4983 19.118 25.965L2.75 15.8945Z" fill="#57449A"/>
<path d="M41.25 12.6647V12.375C41.25 10.9163 40.6705 9.51736 39.6391 8.48591C38.6076 7.45446 37.2087 6.875 35.75 6.875H8.25C6.79131 6.875 5.39236 7.45446 4.36091 8.48591C3.32946 9.51736 2.75 10.9163 2.75 12.375V12.6647L20.559 23.6243C20.9924 23.8909 21.4912 24.0321 22 24.0321C22.5088 24.0321 23.0076 23.8909 23.441 23.6243L41.25 12.6647Z" fill="#57449A"/>
</svg>
