<svg width="32" height="32" viewBox="0 0 32 32" fill="none" xmlns="http://www.w3.org/2000/svg">
<path d="M9.20599 0H22.5388C27.618 0 31.7448 4.12682 31.7448 9.20599V22.5388C31.7448 24.9804 30.7749 27.322 29.0484 29.0484C27.322 30.7749 24.9804 31.7448 22.5388 31.7448H9.20599C4.12682 31.7448 0 27.618 0 22.5388V9.20599C0 6.76441 0.969914 4.42283 2.69637 2.69637C4.42283 0.969914 6.76441 0 9.20599 0ZM8.88854 3.17448C7.37308 3.17448 5.91968 3.77649 4.84809 4.84809C3.77649 5.91968 3.17448 7.37308 3.17448 8.88854V22.8563C3.17448 26.0149 5.72993 28.5703 8.88854 28.5703H22.8563C24.3717 28.5703 25.8251 27.9683 26.8967 26.8967C27.9683 25.8251 28.5703 24.3717 28.5703 22.8563V8.88854C28.5703 5.72993 26.0149 3.17448 22.8563 3.17448H8.88854ZM24.2054 5.55534C24.7316 5.55534 25.2363 5.76437 25.6083 6.13645C25.9804 6.50853 26.1895 7.01319 26.1895 7.53939C26.1895 8.06559 25.9804 8.57024 25.6083 8.94232C25.2363 9.3144 24.7316 9.52344 24.2054 9.52344C23.6792 9.52344 23.1745 9.3144 22.8025 8.94232C22.4304 8.57024 22.2214 8.06559 22.2214 7.53939C22.2214 7.01319 22.4304 6.50853 22.8025 6.13645C23.1745 5.76437 23.6792 5.55534 24.2054 5.55534ZM15.8724 7.9362C17.9772 7.9362 19.9958 8.77233 21.4841 10.2607C22.9725 11.749 23.8086 13.7676 23.8086 15.8724C23.8086 17.9772 22.9725 19.9958 21.4841 21.4841C19.9958 22.9725 17.9772 23.8086 15.8724 23.8086C13.7676 23.8086 11.749 22.9725 10.2607 21.4841C8.77233 19.9958 7.9362 17.9772 7.9362 15.8724C7.9362 13.7676 8.77233 11.749 10.2607 10.2607C11.749 8.77233 13.7676 7.9362 15.8724 7.9362ZM15.8724 11.1107C14.6095 11.1107 13.3983 11.6124 12.5054 12.5054C11.6124 13.3983 11.1107 14.6095 11.1107 15.8724C11.1107 17.1353 11.6124 18.3464 12.5054 19.2394C13.3983 20.1324 14.6095 20.6341 15.8724 20.6341C17.1353 20.6341 18.3464 20.1324 19.2394 19.2394C20.1324 18.3464 20.6341 17.1353 20.6341 15.8724C20.6341 14.6095 20.1324 13.3983 19.2394 12.5054C18.3464 11.6124 17.1353 11.1107 15.8724 11.1107Z" fill="white"/>
</svg>
