<svg width="39" height="39" viewBox="0 0 39 39" fill="none" xmlns="http://www.w3.org/2000/svg">
<path fill-rule="evenodd" clip-rule="evenodd" d="M0 5.5C0 4.04131 0.579463 2.64236 1.61091 1.61091C2.64236 0.579463 4.04131 0 5.5 0H8.01533C9.592 0 10.967 1.07433 11.3502 2.60333L13.376 10.7122C13.5402 11.3685 13.507 12.0587 13.2807 12.6962C13.0543 13.3338 12.6449 13.8904 12.1037 14.2963L9.73317 16.0747C9.48567 16.2598 9.4325 16.5312 9.50217 16.72C10.5369 19.5339 12.1708 22.0893 14.2907 24.2093C16.4107 26.3292 18.9661 27.9631 21.78 28.9978C21.9688 29.0675 22.2383 29.0143 22.4253 28.7668L24.2037 26.3963C24.6096 25.8551 25.1662 25.4457 25.8038 25.2193C26.4413 24.993 27.1315 24.9598 27.7878 25.124L35.8967 27.1498C37.4257 27.533 38.5 28.908 38.5 30.4865V33C38.5 34.4587 37.9205 35.8576 36.8891 36.8891C35.8576 37.9205 34.4587 38.5 33 38.5H28.875C12.9287 38.5 0 25.5713 0 9.625V5.5Z" fill="#57449A"/>
</svg>
