<svg width="32" height="23" viewBox="0 0 32 23" fill="none" xmlns="http://www.w3.org/2000/svg">
<path d="M12.6979 15.8724L20.9357 11.1107L12.6979 6.34896V15.8724ZM31.0464 3.44431C31.2527 4.19031 31.3956 5.19027 31.4908 6.46006C31.6019 7.72986 31.6496 8.82505 31.6496 9.7774L31.7448 11.1107C31.7448 14.5867 31.4908 17.1422 31.0464 18.777C30.6496 20.2056 29.729 21.1262 28.3005 21.523C27.5545 21.7293 26.1895 21.8722 24.0943 21.9674C22.0309 22.0785 20.1421 22.1261 18.3961 22.1261L15.8724 22.2214C9.22186 22.2214 5.07917 21.9674 3.44431 21.523C2.01579 21.1262 1.0952 20.2056 0.698386 18.777C0.492044 18.031 0.349193 17.0311 0.253958 15.7613C0.142852 14.4915 0.0952343 13.3963 0.0952343 12.444L0 11.1107C0 7.63462 0.253958 5.07917 0.698386 3.44431C1.0952 2.01579 2.01579 1.0952 3.44431 0.698385C4.19031 0.492044 5.55534 0.349192 7.6505 0.253958C9.71391 0.142851 11.6027 0.0952343 13.3487 0.0952343L15.8724 0C22.5229 0 26.6656 0.253958 28.3005 0.698385C29.729 1.0952 30.6496 2.01579 31.0464 3.44431Z" fill="white"/>
</svg>
